<?xml version="1.0" encoding="UTF-8"?><svg id="Layer_1" xmlns="http://www.w3.org/2000/svg" viewBox="0 0 262.06 271.3"><path d="M214.52,62.03c3.06.26,5.32,2.94,5.05,6-.25,3.04-2.93,5.31-5.99,5.05-3.04-.27-5.32-2.95-5.05-5.99.26-3.06,2.94-5.31,5.98-5.06M198.71,172.33c23.06-39.18,43.12-79.9,63.35-110.12l-48.1-10.87c-17.57-3.97-22.67,2.93-32.27,18.19l-24.72,36.97c1.8,8.78,2.74,17.86,2.74,27.16,0,53.92-31.66,100.45-77.39,122.03-21.13,11.43-45.45,16.67-70.64,13.81,0,0,110.88,23.15,187.02-97.19Z" style="fill:#6ab441;"/><path d="M41.89,1.21c69.39,9.9,118.12,77.91,108.83,151.86-9.27,73.83-72.87,125.71-142.11,116.05,44.15-17.55,78-59.8,84.69-113.05C102.05,86.44,61.34,21.88,0,2.65,13.44-.24,27.54-.84,41.89,1.21" style="fill:#6ab441; fill-rule:evenodd;"/><path d="M41.88,1.21c62.62,8.94,108.4,65.18,109.92,130.42-13.58,45.23-47.29,81.76-90.7,99.2,16.93-20.23,28.57-45.87,32.19-74.77C102.04,86.43,61.34,21.88,0,2.65,13.44-.24,27.53-.84,41.88,1.21" style="fill:#244ea0; fill-rule:evenodd;"/></svg>